<svg width="40" height="40" viewBox="0 0 40 40" fill="none" xmlns="http://www.w3.org/2000/svg">
<g clip-path="url(#clip0_2_21)">
<path d="M11.9846 31.8749C9.72942 31.8749 7.88462 33.7028 7.88462 35.9375C7.88462 38.1721 9.72942 40 11.9846 40C14.2398 40 16.0847 38.1721 16.0847 35.9375C16.0846 33.7027 14.2397 31.8749 11.9846 31.8749ZM0 0V4.06249H4.1L11.4803 18.8751L8.39465 23.8511C8.08735 24.3589 7.88215 25.0701 7.88215 25.7813C7.88215 28.501 9.75721 29.8438 12.3 29.8438H36.2692V25.9375H12.802C12.4947 25.9375 12.2895 25.7342 12.2895 25.4297C12.2895 25.3286 12.507 24.9219 12.507 24.9219L14.5552 21.7188H29.8271C31.3647 21.7188 32.6979 20.9066 33.4146 19.5864L40.7948 7.00828C40.9167 6.76795 41 6.39832 41 5.99276C41 4.87499 40.0771 4.06259 38.95 4.06259H8.61039L6.6625 0H0ZM32.1691 31.8749C29.9139 31.8749 28.0691 33.7028 28.0691 35.9375C28.0691 38.1721 29.9139 40 32.1691 40C34.4243 40 36.2692 38.172 36.2692 35.9374C36.2692 33.7028 34.4243 31.8749 32.1691 31.8749Z" fill="#848484"/>
</g>
<defs>
<clipPath id="clip0_2_21">
<rect width="40" height="40" fill="white"/>
</clipPath>
</defs>
</svg>
