<svg width="40" height="29" viewBox="0 0 40 29" fill="none" xmlns="http://www.w3.org/2000/svg">
<g clip-path="url(#clip0_2_27)">
<path d="M2 4.14286H38C38.5304 4.14286 39.0391 3.92462 39.4142 3.53615C39.7893 3.14768 40 2.62081 40 2.07143C40 1.52205 39.7893 0.995176 39.4142 0.606708C39.0391 0.21824 38.5304 0 38 0H2C1.46957 0 0.960859 0.21824 0.585786 0.606708C0.210714 0.995176 0 1.52205 0 2.07143C0 2.62081 0.210714 3.14768 0.585786 3.53615C0.960859 3.92462 1.46957 4.14286 2 4.14286ZM38 12.4286H2C1.46957 12.4286 0.960859 12.6468 0.585786 13.0353C0.210714 13.4237 0 13.9506 0 14.5C0 15.0494 0.210714 15.5763 0.585786 15.9647C0.960859 16.3532 1.46957 16.5714 2 16.5714H38C38.5304 16.5714 39.0391 16.3532 39.4142 15.9647C39.7893 15.5763 40 15.0494 40 14.5C40 13.9506 39.7893 13.4237 39.4142 13.0353C39.0391 12.6468 38.5304 12.4286 38 12.4286ZM38 24.8571H2C1.46957 24.8571 0.960859 25.0754 0.585786 25.4638C0.210714 25.8523 0 26.3792 0 26.9286C0 27.4779 0.210714 28.0048 0.585786 28.3933C0.960859 28.7818 1.46957 29 2 29H38C38.5304 29 39.0391 28.7818 39.4142 28.3933C39.7893 28.0048 40 27.4779 40 26.9286C40 26.3792 39.7893 25.8523 39.4142 25.4638C39.0391 25.0754 38.5304 24.8571 38 24.8571Z" fill="#848484"/>
</g>
<defs>
<clipPath id="clip0_2_27">
<rect width="40" height="29" fill="white"/>
</clipPath>
</defs>
</svg>
