<svg width="40" height="40" viewBox="0 0 40 40" fill="none" xmlns="http://www.w3.org/2000/svg">
<g clip-path="url(#clip0_2_25)">
<path d="M38.8995 38.8995C37.4321 40.3668 35.0537 40.3668 33.5863 38.8995L26.9565 32.2695C24.2308 34.0181 21.0088 35.0599 17.53 35.0599C7.84914 35.0599 0 27.2119 0 17.5299C0 7.84797 7.84914 0 17.53 0C27.2121 0 35.06 7.84781 35.06 17.5299C35.06 21.0076 34.0169 24.2308 32.2695 26.9577L38.8995 33.5877C40.3668 35.055 40.3668 37.4321 38.8995 38.8995ZM17.53 5.00852C10.6151 5.00852 5.00859 10.6138 5.00859 17.5298C5.00859 24.4459 10.6152 30.0513 17.53 30.0513C24.446 30.0513 30.0513 24.4459 30.0513 17.5298C30.0513 10.6138 24.446 5.00852 17.53 5.00852Z" fill="#848484"/>
</g>
<defs>
<clipPath id="clip0_2_25">
<rect width="40" height="40" fill="white"/>
</clipPath>
</defs>
</svg>
